<svg version="1.0" xmlns="http://www.w3.org/2000/svg" width="1706.667" height="1706.667" viewBox="0 0 1280 1280"><path d="M314 2.8c-3.7 1.8-6.1 3.9-7.5 6.2-2 3.5-2 5.2-2.3 216.2-.1 117.1-.3 212.9-.5 213-.1.2-58.3.5-129.4.8-128.5.5-129.2.5-131.9 2.6-6.9 5.1-9.2 13-5.8 19.7 1.1 2 132.4 155.8 291.8 341.8 216.6 252.6 290.7 338.5 293.2 339.5 4.5 1.9 9.6 1.8 13.9-.3 2.6-1.2 22.9-24.7 76.8-88.7 40.2-47.9 168.7-200.4 285.5-339 155.4-184.5 212.5-252.9 213.2-255.5 1.9-7.1-1.5-14.8-8-18.2-3.3-1.8-8.8-1.9-131.1-1.9-109.1 0-127.8-.2-128.8-1.4-.9-1.1-1.2-51.8-1-213.5l.1-212-2.2-3.6c-1.3-2.1-4.1-4.5-7.1-6L928.1 0H623.8L319.5.1 314 2.8z"/></svg>